<svg width="313" height="205" viewBox="0 0 313 205" fill="none" xmlns="http://www.w3.org/2000/svg">
<path d="M72.064 34.4H92.8V124H72.064V34.4ZM31.36 124H10.624V34.4H31.36V124ZM73.6 87.264H29.824V69.728H73.6V87.264ZM141.647 125.024C135.93 125.024 130.81 123.915 126.287 121.696C121.85 119.477 118.394 116.107 115.919 111.584C113.444 106.976 112.207 101.131 112.207 94.048V55.136H132.175V91.104C132.175 96.8213 133.37 101.045 135.759 103.776C138.234 106.421 141.69 107.744 146.127 107.744C149.199 107.744 151.93 107.104 154.319 105.824C156.708 104.459 158.586 102.411 159.951 99.68C161.316 96.864 161.999 93.3653 161.999 89.184V55.136H181.967V124H163.023V105.056L166.479 110.56C164.175 115.339 160.762 118.965 156.239 121.44C151.802 123.829 146.938 125.024 141.647 125.024ZM241.17 125.024C235.111 125.024 229.906 123.744 225.554 121.184C221.202 118.624 217.874 114.741 215.57 109.536C213.266 104.245 212.114 97.5893 212.114 89.568C212.114 81.4613 213.309 74.8053 215.698 69.6C218.173 64.3947 221.586 60.512 225.938 57.952C230.29 55.392 235.367 54.112 241.17 54.112C247.655 54.112 253.458 55.5627 258.578 58.464C263.783 61.3653 267.879 65.4613 270.866 70.752C273.938 76.0427 275.474 82.3147 275.474 89.568C275.474 96.736 273.938 102.965 270.866 108.256C267.879 113.547 263.783 117.685 258.578 120.672C253.458 123.573 247.655 125.024 241.17 125.024ZM200.466 124V29.024H220.434V69.088L219.154 89.44L219.538 109.92V124H200.466ZM237.714 108.64C241.042 108.64 243.986 107.872 246.546 106.336C249.191 104.8 251.282 102.624 252.818 99.808C254.439 96.9067 255.25 93.4933 255.25 89.568C255.25 85.5573 254.439 82.144 252.818 79.328C251.282 76.512 249.191 74.336 246.546 72.8C243.986 71.264 241.042 70.496 237.714 70.496C234.386 70.496 231.399 71.264 228.754 72.8C226.109 74.336 224.018 76.512 222.482 79.328C220.946 82.144 220.178 85.5573 220.178 89.568C220.178 93.4933 220.946 96.9067 222.482 99.808C224.018 102.624 226.109 104.8 228.754 106.336C231.399 107.872 234.386 108.64 237.714 108.64ZM295.643 125.024C292.23 125.024 289.286 123.872 286.811 121.568C284.422 119.179 283.227 116.149 283.227 112.48C283.227 108.811 284.422 105.867 286.811 103.648C289.286 101.344 292.23 100.192 295.643 100.192C299.142 100.192 302.086 101.344 304.475 103.648C306.864 105.867 308.059 108.811 308.059 112.48C308.059 116.149 306.864 119.179 304.475 121.568C302.086 123.872 299.142 125.024 295.643 125.024Z" fill="#34495E"/>
<path d="M49.72 163.24C47.6133 163.24 45.6667 162.893 43.88 162.2C42.0933 161.48 40.5467 160.48 39.24 159.2C37.9333 157.92 36.9067 156.413 36.16 154.68C35.44 152.947 35.08 151.053 35.08 149C35.08 146.947 35.44 145.053 36.16 143.32C36.9067 141.587 37.9333 140.08 39.24 138.8C40.5733 137.52 42.1333 136.533 43.92 135.84C45.7067 135.12 47.6533 134.76 49.76 134.76C51.7867 134.76 53.6933 135.107 55.48 135.8C57.2667 136.467 58.7733 137.48 60 138.84L58.12 140.72C56.9733 139.547 55.7067 138.707 54.32 138.2C52.9333 137.667 51.44 137.4 49.84 137.4C48.16 137.4 46.6 137.693 45.16 138.28C43.72 138.84 42.4667 139.653 41.4 140.72C40.3333 141.76 39.4933 142.987 38.88 144.4C38.2933 145.787 38 147.32 38 149C38 150.68 38.2933 152.227 38.88 153.64C39.4933 155.027 40.3333 156.253 41.4 157.32C42.4667 158.36 43.72 159.173 45.16 159.76C46.6 160.32 48.16 160.6 49.84 160.6C51.44 160.6 52.9333 160.333 54.32 159.8C55.7067 159.267 56.9733 158.413 58.12 157.24L60 159.12C58.7733 160.48 57.2667 161.507 55.48 162.2C53.6933 162.893 51.7733 163.24 49.72 163.24ZM66.31 163V135H76.79C79.1633 135 81.2033 135.387 82.91 136.16C84.6167 136.907 85.9233 138 86.83 139.44C87.7633 140.853 88.23 142.573 88.23 144.6C88.23 146.573 87.7633 148.28 86.83 149.72C85.9233 151.133 84.6167 152.227 82.91 153C81.2033 153.747 79.1633 154.12 76.79 154.12H67.95L69.27 152.76V163H66.31ZM85.43 163L78.23 152.84H81.43L88.67 163H85.43ZM69.27 153L67.95 151.6H76.71C79.51 151.6 81.63 150.987 83.07 149.76C84.5367 148.533 85.27 146.813 85.27 144.6C85.27 142.36 84.5367 140.627 83.07 139.4C81.63 138.173 79.51 137.56 76.71 137.56H67.95L69.27 136.16V153ZM97.8563 147.52H112.656V150.04H97.8563V147.52ZM98.1763 160.44H115.016V163H95.2163V135H114.416V137.56H98.1763V160.44ZM129.694 163.24C127.614 163.24 125.614 162.907 123.694 162.24C121.801 161.547 120.334 160.667 119.294 159.6L120.454 157.32C121.441 158.28 122.761 159.093 124.414 159.76C126.094 160.4 127.854 160.72 129.694 160.72C131.454 160.72 132.881 160.507 133.974 160.08C135.094 159.627 135.907 159.027 136.414 158.28C136.947 157.533 137.214 156.707 137.214 155.8C137.214 154.707 136.894 153.827 136.254 153.16C135.641 152.493 134.827 151.973 133.814 151.6C132.801 151.2 131.681 150.853 130.454 150.56C129.227 150.267 128.001 149.96 126.774 149.64C125.547 149.293 124.414 148.84 123.374 148.28C122.361 147.72 121.534 146.987 120.894 146.08C120.281 145.147 119.974 143.933 119.974 142.44C119.974 141.053 120.334 139.787 121.054 138.64C121.801 137.467 122.934 136.533 124.454 135.84C125.974 135.12 127.921 134.76 130.294 134.76C131.867 134.76 133.427 134.987 134.974 135.44C136.521 135.867 137.854 136.467 138.974 137.24L137.974 139.6C136.774 138.8 135.494 138.213 134.134 137.84C132.801 137.467 131.507 137.28 130.254 137.28C128.574 137.28 127.187 137.507 126.094 137.96C125.001 138.413 124.187 139.027 123.654 139.8C123.147 140.547 122.894 141.4 122.894 142.36C122.894 143.453 123.201 144.333 123.814 145C124.454 145.667 125.281 146.187 126.294 146.56C127.334 146.933 128.467 147.267 129.694 147.56C130.921 147.853 132.134 148.173 133.334 148.52C134.561 148.867 135.681 149.32 136.694 149.88C137.734 150.413 138.561 151.133 139.174 152.04C139.814 152.947 140.134 154.133 140.134 155.6C140.134 156.96 139.761 158.227 139.014 159.4C138.267 160.547 137.121 161.48 135.574 162.2C134.054 162.893 132.094 163.24 129.694 163.24ZM146.583 163V135H149.543V163H146.583ZM158.334 163.2C157.747 163.2 157.24 162.987 156.814 162.56C156.414 162.133 156.214 161.613 156.214 161C156.214 160.36 156.414 159.84 156.814 159.44C157.24 159.04 157.747 158.84 158.334 158.84C158.92 158.84 159.414 159.04 159.814 159.44C160.24 159.84 160.454 160.36 160.454 161C160.454 161.613 160.24 162.133 159.814 162.56C159.414 162.987 158.92 163.2 158.334 163.2ZM178.509 163.24C176.402 163.24 174.456 162.893 172.669 162.2C170.882 161.48 169.336 160.48 168.029 159.2C166.722 157.92 165.696 156.413 164.949 154.68C164.229 152.947 163.869 151.053 163.869 149C163.869 146.947 164.229 145.053 164.949 143.32C165.696 141.587 166.722 140.08 168.029 138.8C169.362 137.52 170.922 136.533 172.709 135.84C174.496 135.12 176.442 134.76 178.549 134.76C180.576 134.76 182.482 135.107 184.269 135.8C186.056 136.467 187.562 137.48 188.789 138.84L186.909 140.72C185.762 139.547 184.496 138.707 183.109 138.2C181.722 137.667 180.229 137.4 178.629 137.4C176.949 137.4 175.389 137.693 173.949 138.28C172.509 138.84 171.256 139.653 170.189 140.72C169.122 141.76 168.282 142.987 167.669 144.4C167.082 145.787 166.789 147.32 166.789 149C166.789 150.68 167.082 152.227 167.669 153.64C168.282 155.027 169.122 156.253 170.189 157.32C171.256 158.36 172.509 159.173 173.949 159.76C175.389 160.32 176.949 160.6 178.629 160.6C180.229 160.6 181.722 160.333 183.109 159.8C184.496 159.267 185.762 158.413 186.909 157.24L188.789 159.12C187.562 160.48 186.056 161.507 184.269 162.2C182.482 162.893 180.562 163.24 178.509 163.24ZM206.753 163.24C204.646 163.24 202.686 162.893 200.873 162.2C199.086 161.48 197.526 160.48 196.193 159.2C194.886 157.893 193.86 156.387 193.113 154.68C192.393 152.947 192.033 151.053 192.033 149C192.033 146.947 192.393 145.067 193.113 143.36C193.86 141.627 194.886 140.12 196.193 138.84C197.526 137.533 199.086 136.533 200.873 135.84C202.66 135.12 204.62 134.76 206.753 134.76C208.86 134.76 210.806 135.12 212.593 135.84C214.38 136.533 215.926 137.52 217.233 138.8C218.566 140.08 219.593 141.587 220.313 143.32C221.06 145.053 221.433 146.947 221.433 149C221.433 151.053 221.06 152.947 220.313 154.68C219.593 156.413 218.566 157.92 217.233 159.2C215.926 160.48 214.38 161.48 212.593 162.2C210.806 162.893 208.86 163.24 206.753 163.24ZM206.753 160.6C208.433 160.6 209.98 160.32 211.393 159.76C212.833 159.173 214.073 158.36 215.113 157.32C216.18 156.253 217.006 155.027 217.593 153.64C218.18 152.227 218.473 150.68 218.473 149C218.473 147.32 218.18 145.787 217.593 144.4C217.006 142.987 216.18 141.76 215.113 140.72C214.073 139.653 212.833 138.84 211.393 138.28C209.98 137.693 208.433 137.4 206.753 137.4C205.073 137.4 203.513 137.693 202.073 138.28C200.633 138.84 199.38 139.653 198.313 140.72C197.273 141.76 196.446 142.987 195.833 144.4C195.246 145.787 194.953 147.32 194.953 149C194.953 150.653 195.246 152.187 195.833 153.6C196.446 155.013 197.273 156.253 198.313 157.32C199.38 158.36 200.633 159.173 202.073 159.76C203.513 160.32 205.073 160.6 206.753 160.6ZM228.068 163V135H230.508L243.308 156.84H242.028L254.708 135H257.148V163H254.308V139.44H254.988L243.308 159.44H241.908L230.148 139.44H230.908V163H228.068Z" fill="#434343"/>
</svg>