<svg width="374" height="44" viewBox="0 0 374 44" fill="none" xmlns="http://www.w3.org/2000/svg">
<g filter="url(#filter0_d_1693_2)">
<path d="M18.2476 35.432C16.3036 35.432 14.4916 35.12 12.8116 34.496C11.1556 33.848 9.71562 32.936 8.49162 31.76C7.26762 30.584 6.30762 29.204 5.61162 27.62C4.93962 26.036 4.60362 24.296 4.60362 22.4C4.60362 20.504 4.93962 18.764 5.61162 17.18C6.30762 15.596 7.26762 14.216 8.49162 13.04C9.73962 11.864 11.1916 10.964 12.8476 10.34C14.5036 9.692 16.3156 9.368 18.2836 9.368C20.4676 9.368 22.4356 9.752 24.1876 10.52C25.9636 11.264 27.4516 12.368 28.6516 13.832L24.9076 17.288C24.0436 16.304 23.0836 15.572 22.0276 15.092C20.9716 14.588 19.8196 14.336 18.5716 14.336C17.3956 14.336 16.3156 14.528 15.3316 14.912C14.3476 15.296 13.4956 15.848 12.7756 16.568C12.0556 17.288 11.4916 18.14 11.0836 19.124C10.6996 20.108 10.5076 21.2 10.5076 22.4C10.5076 23.6 10.6996 24.692 11.0836 25.676C11.4916 26.66 12.0556 27.512 12.7756 28.232C13.4956 28.952 14.3476 29.504 15.3316 29.888C16.3156 30.272 17.3956 30.464 18.5716 30.464C19.8196 30.464 20.9716 30.224 22.0276 29.744C23.0836 29.24 24.0436 28.484 24.9076 27.476L28.6516 30.932C27.4516 32.396 25.9636 33.512 24.1876 34.28C22.4356 35.048 20.4556 35.432 18.2476 35.432ZM44.47 35V9.8H55.378C57.634 9.8 59.578 10.172 61.21 10.916C62.842 11.636 64.102 12.68 64.99 14.048C65.878 15.416 66.322 17.048 66.322 18.944C66.322 20.816 65.878 22.436 64.99 23.804C64.102 25.148 62.842 26.18 61.21 26.9C59.578 27.62 57.634 27.98 55.378 27.98H47.71L50.302 25.424V35H44.47ZM60.49 35L54.19 25.856H60.418L66.79 35H60.49ZM50.302 26.072L47.71 23.336H55.054C56.854 23.336 58.198 22.952 59.086 22.184C59.974 21.392 60.418 20.312 60.418 18.944C60.418 17.552 59.974 16.472 59.086 15.704C58.198 14.936 56.854 14.552 55.054 14.552H47.71L50.302 11.78V26.072ZM88.1866 19.952H100.319V24.488H88.1866V19.952ZM88.6186 30.32H102.335V35H82.8226V9.8H101.867V14.48H88.6186V30.32ZM127.135 35.432C125.119 35.432 123.187 35.168 121.339 34.64C119.491 34.088 118.003 33.38 116.875 32.516L118.855 28.124C119.935 28.892 121.207 29.528 122.671 30.032C124.159 30.512 125.659 30.752 127.171 30.752C128.323 30.752 129.247 30.644 129.943 30.428C130.663 30.188 131.191 29.864 131.527 29.456C131.863 29.048 132.031 28.58 132.031 28.052C132.031 27.38 131.767 26.852 131.239 26.468C130.711 26.06 130.015 25.736 129.151 25.496C128.287 25.232 127.327 24.992 126.271 24.776C125.239 24.536 124.195 24.248 123.139 23.912C122.107 23.576 121.159 23.144 120.295 22.616C119.431 22.088 118.723 21.392 118.171 20.528C117.643 19.664 117.379 18.56 117.379 17.216C117.379 15.776 117.763 14.468 118.531 13.292C119.323 12.092 120.499 11.144 122.059 10.448C123.643 9.728 125.623 9.368 127.999 9.368C129.583 9.368 131.143 9.56 132.679 9.944C134.215 10.304 135.571 10.856 136.747 11.6L134.947 16.028C133.771 15.356 132.595 14.864 131.419 14.552C130.243 14.216 129.091 14.048 127.963 14.048C126.835 14.048 125.911 14.18 125.191 14.444C124.471 14.708 123.955 15.056 123.643 15.488C123.331 15.896 123.175 16.376 123.175 16.928C123.175 17.576 123.439 18.104 123.967 18.512C124.495 18.896 125.191 19.208 126.055 19.448C126.919 19.688 127.867 19.928 128.899 20.168C129.955 20.408 130.999 20.684 132.031 20.996C133.087 21.308 134.047 21.728 134.911 22.256C135.775 22.784 136.471 23.48 136.999 24.344C137.551 25.208 137.827 26.3 137.827 27.62C137.827 29.036 137.431 30.332 136.639 31.508C135.847 32.684 134.659 33.632 133.075 34.352C131.515 35.072 129.535 35.432 127.135 35.432ZM153.692 35V9.8H159.524V35H153.692Z" fill="#34495E"/>
<path d="M196.148 35L207.38 9.8H213.14L224.408 35H218.288L209.072 12.752H211.376L202.124 35H196.148ZM201.764 29.6L203.312 25.172H216.272L217.856 29.6H201.764ZM247.182 35.432C245.166 35.432 243.234 35.168 241.386 34.64C239.538 34.088 238.05 33.38 236.922 32.516L238.902 28.124C239.982 28.892 241.254 29.528 242.718 30.032C244.206 30.512 245.706 30.752 247.218 30.752C248.37 30.752 249.294 30.644 249.99 30.428C250.71 30.188 251.238 29.864 251.574 29.456C251.91 29.048 252.078 28.58 252.078 28.052C252.078 27.38 251.814 26.852 251.286 26.468C250.758 26.06 250.062 25.736 249.198 25.496C248.334 25.232 247.374 24.992 246.318 24.776C245.286 24.536 244.242 24.248 243.186 23.912C242.154 23.576 241.206 23.144 240.342 22.616C239.478 22.088 238.77 21.392 238.218 20.528C237.69 19.664 237.426 18.56 237.426 17.216C237.426 15.776 237.81 14.468 238.578 13.292C239.37 12.092 240.546 11.144 242.106 10.448C243.69 9.728 245.67 9.368 248.046 9.368C249.63 9.368 251.19 9.56 252.726 9.944C254.262 10.304 255.618 10.856 256.794 11.6L254.994 16.028C253.818 15.356 252.642 14.864 251.466 14.552C250.29 14.216 249.138 14.048 248.01 14.048C246.882 14.048 245.958 14.18 245.238 14.444C244.518 14.708 244.002 15.056 243.69 15.488C243.378 15.896 243.222 16.376 243.222 16.928C243.222 17.576 243.486 18.104 244.014 18.512C244.542 18.896 245.238 19.208 246.102 19.448C246.966 19.688 247.914 19.928 248.946 20.168C250.002 20.408 251.046 20.684 252.078 20.996C253.134 21.308 254.094 21.728 254.958 22.256C255.822 22.784 256.518 23.48 257.046 24.344C257.598 25.208 257.874 26.3 257.874 27.62C257.874 29.036 257.478 30.332 256.686 31.508C255.894 32.684 254.706 33.632 253.122 34.352C251.562 35.072 249.582 35.432 247.182 35.432ZM282.019 35.432C280.003 35.432 278.071 35.168 276.223 34.64C274.375 34.088 272.887 33.38 271.759 32.516L273.739 28.124C274.819 28.892 276.091 29.528 277.555 30.032C279.043 30.512 280.543 30.752 282.055 30.752C283.207 30.752 284.131 30.644 284.827 30.428C285.547 30.188 286.075 29.864 286.411 29.456C286.747 29.048 286.915 28.58 286.915 28.052C286.915 27.38 286.651 26.852 286.123 26.468C285.595 26.06 284.899 25.736 284.035 25.496C283.171 25.232 282.211 24.992 281.155 24.776C280.123 24.536 279.079 24.248 278.023 23.912C276.991 23.576 276.043 23.144 275.179 22.616C274.315 22.088 273.607 21.392 273.055 20.528C272.527 19.664 272.263 18.56 272.263 17.216C272.263 15.776 272.647 14.468 273.415 13.292C274.207 12.092 275.383 11.144 276.943 10.448C278.527 9.728 280.507 9.368 282.883 9.368C284.467 9.368 286.027 9.56 287.563 9.944C289.099 10.304 290.455 10.856 291.631 11.6L289.831 16.028C288.655 15.356 287.479 14.864 286.303 14.552C285.127 14.216 283.975 14.048 282.847 14.048C281.719 14.048 280.795 14.18 280.075 14.444C279.355 14.708 278.839 15.056 278.527 15.488C278.215 15.896 278.059 16.376 278.059 16.928C278.059 17.576 278.323 18.104 278.851 18.512C279.379 18.896 280.075 19.208 280.939 19.448C281.803 19.688 282.751 19.928 283.783 20.168C284.839 20.408 285.883 20.684 286.915 20.996C287.971 21.308 288.931 21.728 289.795 22.256C290.659 22.784 291.355 23.48 291.883 24.344C292.435 25.208 292.711 26.3 292.711 27.62C292.711 29.036 292.315 30.332 291.523 31.508C290.731 32.684 289.543 33.632 287.959 34.352C286.399 35.072 284.419 35.432 282.019 35.432ZM320.816 35.432C318.824 35.432 316.976 35.108 315.272 34.46C313.592 33.812 312.128 32.9 310.88 31.724C309.656 30.548 308.696 29.168 308 27.584C307.328 26 306.992 24.272 306.992 22.4C306.992 20.528 307.328 18.8 308 17.216C308.696 15.632 309.668 14.252 310.916 13.076C312.164 11.9 313.628 10.988 315.308 10.34C316.988 9.692 318.812 9.368 320.78 9.368C322.772 9.368 324.596 9.692 326.252 10.34C327.932 10.988 329.384 11.9 330.608 13.076C331.856 14.252 332.828 15.632 333.524 17.216C334.22 18.776 334.568 20.504 334.568 22.4C334.568 24.272 334.22 26.012 333.524 27.62C332.828 29.204 331.856 30.584 330.608 31.76C329.384 32.912 327.932 33.812 326.252 34.46C324.596 35.108 322.784 35.432 320.816 35.432ZM320.78 30.464C321.908 30.464 322.94 30.272 323.876 29.888C324.836 29.504 325.676 28.952 326.396 28.232C327.116 27.512 327.668 26.66 328.052 25.676C328.46 24.692 328.664 23.6 328.664 22.4C328.664 21.2 328.46 20.108 328.052 19.124C327.668 18.14 327.116 17.288 326.396 16.568C325.7 15.848 324.872 15.296 323.912 14.912C322.952 14.528 321.908 14.336 320.78 14.336C319.652 14.336 318.608 14.528 317.648 14.912C316.712 15.296 315.884 15.848 315.164 16.568C314.444 17.288 313.88 18.14 313.472 19.124C313.088 20.108 312.896 21.2 312.896 22.4C312.896 23.576 313.088 24.668 313.472 25.676C313.88 26.66 314.432 27.512 315.128 28.232C315.848 28.952 316.688 29.504 317.648 29.888C318.608 30.272 319.652 30.464 320.78 30.464ZM359.111 35.432C357.095 35.432 355.163 35.168 353.315 34.64C351.467 34.088 349.979 33.38 348.851 32.516L350.831 28.124C351.911 28.892 353.183 29.528 354.647 30.032C356.135 30.512 357.635 30.752 359.147 30.752C360.299 30.752 361.223 30.644 361.919 30.428C362.639 30.188 363.167 29.864 363.503 29.456C363.839 29.048 364.007 28.58 364.007 28.052C364.007 27.38 363.743 26.852 363.215 26.468C362.687 26.06 361.991 25.736 361.127 25.496C360.263 25.232 359.303 24.992 358.247 24.776C357.215 24.536 356.171 24.248 355.115 23.912C354.083 23.576 353.135 23.144 352.271 22.616C351.407 22.088 350.699 21.392 350.147 20.528C349.619 19.664 349.355 18.56 349.355 17.216C349.355 15.776 349.739 14.468 350.507 13.292C351.299 12.092 352.475 11.144 354.035 10.448C355.619 9.728 357.599 9.368 359.975 9.368C361.559 9.368 363.119 9.56 364.655 9.944C366.191 10.304 367.547 10.856 368.723 11.6L366.923 16.028C365.747 15.356 364.571 14.864 363.395 14.552C362.219 14.216 361.067 14.048 359.939 14.048C358.811 14.048 357.887 14.18 357.167 14.444C356.447 14.708 355.931 15.056 355.619 15.488C355.307 15.896 355.151 16.376 355.151 16.928C355.151 17.576 355.415 18.104 355.943 18.512C356.471 18.896 357.167 19.208 358.031 19.448C358.895 19.688 359.843 19.928 360.875 20.168C361.931 20.408 362.975 20.684 364.007 20.996C365.063 21.308 366.023 21.728 366.887 22.256C367.751 22.784 368.447 23.48 368.975 24.344C369.527 25.208 369.803 26.3 369.803 27.62C369.803 29.036 369.407 30.332 368.615 31.508C367.823 32.684 366.635 33.632 365.051 34.352C363.491 35.072 361.511 35.432 359.111 35.432Z" fill="#E74C3C"/>
</g>
<defs>
<filter id="filter0_d_1693_2" x="0.603516" y="9.36816" width="373.2" height="34.064" filterUnits="userSpaceOnUse" color-interpolation-filters="sRGB">
<feFlood flood-opacity="0" result="BackgroundImageFix"/>
<feColorMatrix in="SourceAlpha" type="matrix" values="0 0 0 0 0 0 0 0 0 0 0 0 0 0 0 0 0 0 127 0" result="hardAlpha"/>
<feOffset dy="4"/>
<feGaussianBlur stdDeviation="2"/>
<feComposite in2="hardAlpha" operator="out"/>
<feColorMatrix type="matrix" values="0 0 0 0 0 0 0 0 0 0 0 0 0 0 0 0 0 0 0.25 0"/>
<feBlend mode="normal" in2="BackgroundImageFix" result="effect1_dropShadow_1693_2"/>
<feBlend mode="normal" in="SourceGraphic" in2="effect1_dropShadow_1693_2" result="shape"/>
</filter>
</defs>
</svg>
