<svg width="199" height="125" viewBox="0 0 199 125" fill="none" xmlns="http://www.w3.org/2000/svg">
<path d="M26.752 62.768C23.296 62.768 20.0747 62.2133 17.088 61.104C14.144 59.952 11.584 58.3307 9.408 56.24C7.232 54.1493 5.52533 51.696 4.288 48.88C3.09333 46.064 2.496 42.9707 2.496 39.6C2.496 36.2293 3.09333 33.136 4.288 30.32C5.52533 27.504 7.232 25.0507 9.408 22.96C11.6267 20.8693 14.208 19.2693 17.152 18.16C20.096 17.008 23.3173 16.432 26.816 16.432C30.6987 16.432 34.1973 17.1147 37.312 18.48C40.4693 19.8027 43.1147 21.7653 45.248 24.368L38.592 30.512C37.056 28.7627 35.3493 27.4613 33.472 26.608C31.5947 25.712 29.5467 25.264 27.328 25.264C25.2373 25.264 23.3173 25.6053 21.568 26.288C19.8187 26.9707 18.304 27.952 17.024 29.232C15.744 30.512 14.7413 32.0267 14.016 33.776C13.3333 35.5253 12.992 37.4667 12.992 39.6C12.992 41.7333 13.3333 43.6747 14.016 45.424C14.7413 47.1733 15.744 48.688 17.024 49.968C18.304 51.248 19.8187 52.2293 21.568 52.912C23.3173 53.5947 25.2373 53.936 27.328 53.936C29.5467 53.936 31.5947 53.5093 33.472 52.656C35.3493 51.76 37.056 50.416 38.592 48.624L45.248 54.768C43.1147 57.3707 40.4693 59.3547 37.312 60.72C34.1973 62.0853 30.6773 62.768 26.752 62.768ZM52.2495 62V17.2H71.6415C75.6522 17.2 79.1082 17.8613 82.0095 19.184C84.9108 20.464 87.1508 22.32 88.7295 24.752C90.3082 27.184 91.0975 30.0853 91.0975 33.456C91.0975 36.784 90.3082 39.664 88.7295 42.096C87.1508 44.4853 84.9108 46.32 82.0095 47.6C79.1082 48.88 75.6522 49.52 71.6415 49.52H58.0095L62.6175 44.976V62H52.2495ZM80.7295 62L69.5295 45.744H80.6015L91.9295 62H80.7295ZM62.6175 46.128L58.0095 41.264H71.0655C74.2655 41.264 76.6548 40.5813 78.2335 39.216C79.8122 37.808 80.6015 35.888 80.6015 33.456C80.6015 30.9813 79.8122 29.0613 78.2335 27.696C76.6548 26.3307 74.2655 25.648 71.0655 25.648H58.0095L62.6175 20.72V46.128ZM108.848 35.248H130.416V43.312H108.848V35.248ZM109.616 53.68H134V62H99.312V17.2H133.168V25.52H109.616V53.68ZM156.97 62.768C153.386 62.768 149.951 62.2987 146.666 61.36C143.38 60.3787 140.735 59.12 138.73 57.584L142.25 49.776C144.17 51.1413 146.431 52.272 149.034 53.168C151.679 54.0213 154.346 54.448 157.034 54.448C159.082 54.448 160.724 54.256 161.962 53.872C163.242 53.4453 164.18 52.8693 164.778 52.144C165.375 51.4187 165.674 50.5867 165.674 49.648C165.674 48.4533 165.204 47.5147 164.266 46.832C163.327 46.1067 162.09 45.5307 160.554 45.104C159.018 44.6347 157.311 44.208 155.434 43.824C153.599 43.3973 151.743 42.8853 149.866 42.288C148.031 41.6907 146.346 40.9227 144.81 39.984C143.274 39.0453 142.015 37.808 141.034 36.272C140.095 34.736 139.626 32.7733 139.626 30.384C139.626 27.824 140.308 25.4987 141.674 23.408C143.082 21.2747 145.172 19.5893 147.946 18.352C150.762 17.072 154.282 16.432 158.506 16.432C161.322 16.432 164.095 16.7733 166.826 17.456C169.556 18.096 171.967 19.0773 174.058 20.4L170.858 28.272C168.767 27.0773 166.676 26.2027 164.586 25.648C162.495 25.0507 160.447 24.752 158.442 24.752C156.436 24.752 154.794 24.9867 153.514 25.456C152.234 25.9253 151.316 26.544 150.762 27.312C150.207 28.0373 149.93 28.8907 149.93 29.872C149.93 31.024 150.399 31.9627 151.338 32.688C152.276 33.3707 153.514 33.9253 155.05 34.352C156.586 34.7787 158.271 35.2053 160.106 35.632C161.983 36.0587 163.839 36.5493 165.674 37.104C167.551 37.6587 169.258 38.4053 170.794 39.344C172.33 40.2827 173.567 41.52 174.506 43.056C175.487 44.592 175.978 46.5333 175.978 48.88C175.978 51.3973 175.274 53.7013 173.866 55.792C172.458 57.8827 170.346 59.568 167.53 60.848C164.756 62.128 161.236 62.768 156.97 62.768ZM183.062 62V17.2H193.43V62H183.062Z" fill="#34495E"/>
<path d="M30.048 75.9H33.552V109.5H30.048V75.9ZM9.024 109.5H5.472V75.9H9.024V109.5ZM30.384 93.996H8.64V90.876H30.384V93.996ZM56.6149 109.74C54.4709 109.74 52.5989 109.34 50.9989 108.54C49.3989 107.74 48.1509 106.54 47.2549 104.94C46.3909 103.34 45.9589 101.34 45.9589 98.94V84.3H49.3669V98.556C49.3669 101.244 50.0229 103.276 51.3349 104.652C52.6789 105.996 54.5509 106.668 56.9509 106.668C58.7109 106.668 60.2309 106.316 61.5109 105.612C62.8229 104.876 63.8149 103.82 64.4869 102.444C65.1909 101.068 65.5429 99.42 65.5429 97.5V84.3H68.9509V109.5H65.6869V102.588L66.2149 103.836C65.4149 105.692 64.1669 107.148 62.4709 108.204C60.8069 109.228 58.8549 109.74 56.6149 109.74ZM93.8569 109.74C91.6489 109.74 89.6649 109.244 87.9049 108.252C86.1449 107.228 84.7529 105.756 83.7289 103.836C82.7049 101.916 82.1929 99.596 82.1929 96.876C82.1929 94.124 82.7049 91.804 83.7289 89.916C84.7849 87.996 86.1929 86.54 87.9529 85.548C89.7129 84.556 91.6809 84.06 93.8569 84.06C96.2569 84.06 98.4009 84.604 100.289 85.692C102.209 86.748 103.713 88.236 104.801 90.156C105.889 92.076 106.433 94.316 106.433 96.876C106.433 99.404 105.889 101.644 104.801 103.596C103.713 105.516 102.209 107.02 100.289 108.108C98.4009 109.196 96.2569 109.74 93.8569 109.74ZM80.8489 109.5V73.884H84.2569V91.74L83.7769 96.828L84.1129 101.916V109.5H80.8489ZM93.6169 106.716C95.4089 106.716 97.0089 106.316 98.4169 105.516C99.8249 104.684 100.945 103.532 101.777 102.06C102.609 100.556 103.025 98.828 103.025 96.876C103.025 94.892 102.609 93.164 101.777 91.692C100.945 90.22 99.8249 89.084 98.4169 88.284C97.0089 87.452 95.4089 87.036 93.6169 87.036C91.8249 87.036 90.2089 87.452 88.7689 88.284C87.3609 89.084 86.2409 90.22 85.4089 91.692C84.6089 93.164 84.2089 94.892 84.2089 96.876C84.2089 98.828 84.6089 100.556 85.4089 102.06C86.2409 103.532 87.3609 104.684 88.7689 105.516C90.2089 106.316 91.8249 106.716 93.6169 106.716Z" fill="#5965A8"/>
</svg>