<svg width="374" height="44" viewBox="0 0 374 44" fill="none" xmlns="http://www.w3.org/2000/svg">
<g filter="url(#filter0_d_1688_10)">
<path d="M37.4239 35.432C35.4799 35.432 33.6679 35.12 31.9879 34.496C30.3319 33.848 28.8919 32.936 27.6679 31.76C26.4439 30.584 25.4839 29.204 24.7879 27.62C24.1159 26.036 23.7799 24.296 23.7799 22.4C23.7799 20.504 24.1159 18.764 24.7879 17.18C25.4839 15.596 26.4439 14.216 27.6679 13.04C28.9159 11.864 30.3679 10.964 32.0239 10.34C33.6799 9.692 35.4919 9.368 37.4599 9.368C39.6439 9.368 41.6119 9.752 43.3639 10.52C45.1399 11.264 46.6279 12.368 47.8279 13.832L44.0839 17.288C43.2199 16.304 42.2599 15.572 41.2039 15.092C40.1479 14.588 38.9959 14.336 37.7479 14.336C36.5719 14.336 35.4919 14.528 34.5079 14.912C33.5239 15.296 32.6719 15.848 31.9519 16.568C31.2319 17.288 30.6679 18.14 30.2599 19.124C29.8759 20.108 29.6839 21.2 29.6839 22.4C29.6839 23.6 29.8759 24.692 30.2599 25.676C30.6679 26.66 31.2319 27.512 31.9519 28.232C32.6719 28.952 33.5239 29.504 34.5079 29.888C35.4919 30.272 36.5719 30.464 37.7479 30.464C38.9959 30.464 40.1479 30.224 41.2039 29.744C42.2599 29.24 43.2199 28.484 44.0839 27.476L47.8279 30.932C46.6279 32.396 45.1399 33.512 43.3639 34.28C41.6119 35.048 39.6319 35.432 37.4239 35.432ZM63.6463 35V9.8H74.5543C76.8103 9.8 78.7543 10.172 80.3863 10.916C82.0183 11.636 83.2783 12.68 84.1663 14.048C85.0543 15.416 85.4983 17.048 85.4983 18.944C85.4983 20.816 85.0543 22.436 84.1663 23.804C83.2783 25.148 82.0183 26.18 80.3863 26.9C78.7543 27.62 76.8103 27.98 74.5543 27.98H66.8863L69.4783 25.424V35H63.6463ZM79.6663 35L73.3663 25.856H79.5943L85.9663 35H79.6663ZM69.4783 26.072L66.8863 23.336H74.2303C76.0303 23.336 77.3743 22.952 78.2623 22.184C79.1503 21.392 79.5943 20.312 79.5943 18.944C79.5943 17.552 79.1503 16.472 78.2623 15.704C77.3743 14.936 76.0303 14.552 74.2303 14.552H66.8863L69.4783 11.78V26.072ZM107.363 19.952H119.495V24.488H107.363V19.952ZM107.795 30.32H121.511V35H101.999V9.8H121.043V14.48H107.795V30.32ZM146.311 35.432C144.295 35.432 142.363 35.168 140.515 34.64C138.667 34.088 137.179 33.38 136.051 32.516L138.031 28.124C139.111 28.892 140.383 29.528 141.847 30.032C143.335 30.512 144.835 30.752 146.347 30.752C147.499 30.752 148.423 30.644 149.119 30.428C149.839 30.188 150.367 29.864 150.703 29.456C151.039 29.048 151.207 28.58 151.207 28.052C151.207 27.38 150.943 26.852 150.415 26.468C149.887 26.06 149.191 25.736 148.327 25.496C147.463 25.232 146.503 24.992 145.447 24.776C144.415 24.536 143.371 24.248 142.315 23.912C141.283 23.576 140.335 23.144 139.471 22.616C138.607 22.088 137.899 21.392 137.347 20.528C136.819 19.664 136.555 18.56 136.555 17.216C136.555 15.776 136.939 14.468 137.707 13.292C138.499 12.092 139.675 11.144 141.235 10.448C142.819 9.728 144.799 9.368 147.175 9.368C148.759 9.368 150.319 9.56 151.855 9.944C153.391 10.304 154.747 10.856 155.923 11.6L154.123 16.028C152.947 15.356 151.771 14.864 150.595 14.552C149.419 14.216 148.267 14.048 147.139 14.048C146.011 14.048 145.087 14.18 144.367 14.444C143.647 14.708 143.131 15.056 142.819 15.488C142.507 15.896 142.351 16.376 142.351 16.928C142.351 17.576 142.615 18.104 143.143 18.512C143.671 18.896 144.367 19.208 145.231 19.448C146.095 19.688 147.043 19.928 148.075 20.168C149.131 20.408 150.175 20.684 151.207 20.996C152.263 21.308 153.223 21.728 154.087 22.256C154.951 22.784 155.647 23.48 156.175 24.344C156.727 25.208 157.003 26.3 157.003 27.62C157.003 29.036 156.607 30.332 155.815 31.508C155.023 32.684 153.835 33.632 152.251 34.352C150.691 35.072 148.711 35.432 146.311 35.432ZM172.868 35V9.8H178.7V35H172.868Z" fill="#34495E"/>
<path d="M223.28 35.432C221.576 35.432 220.004 35.12 218.564 34.496C217.148 33.848 215.984 32.936 215.072 31.76L218.312 27.872C219.008 28.784 219.74 29.48 220.508 29.96C221.276 30.416 222.104 30.644 222.992 30.644C225.368 30.644 226.556 29.252 226.556 26.468V14.48H217.7V9.8H232.352V26.144C232.352 29.264 231.584 31.592 230.048 33.128C228.512 34.664 226.256 35.432 223.28 35.432ZM262.233 35.432C260.241 35.432 258.393 35.108 256.689 34.46C255.009 33.812 253.545 32.9 252.297 31.724C251.073 30.548 250.113 29.168 249.417 27.584C248.745 26 248.409 24.272 248.409 22.4C248.409 20.528 248.745 18.8 249.417 17.216C250.113 15.632 251.085 14.252 252.333 13.076C253.581 11.9 255.045 10.988 256.725 10.34C258.405 9.692 260.229 9.368 262.197 9.368C264.189 9.368 266.013 9.692 267.669 10.34C269.349 10.988 270.801 11.9 272.025 13.076C273.273 14.252 274.245 15.632 274.941 17.216C275.637 18.776 275.985 20.504 275.985 22.4C275.985 24.272 275.637 26.012 274.941 27.62C274.245 29.204 273.273 30.584 272.025 31.76C270.801 32.912 269.349 33.812 267.669 34.46C266.013 35.108 264.201 35.432 262.233 35.432ZM262.197 30.464C263.325 30.464 264.357 30.272 265.293 29.888C266.253 29.504 267.093 28.952 267.813 28.232C268.533 27.512 269.085 26.66 269.469 25.676C269.877 24.692 270.081 23.6 270.081 22.4C270.081 21.2 269.877 20.108 269.469 19.124C269.085 18.14 268.533 17.288 267.813 16.568C267.117 15.848 266.289 15.296 265.329 14.912C264.369 14.528 263.325 14.336 262.197 14.336C261.069 14.336 260.025 14.528 259.065 14.912C258.129 15.296 257.301 15.848 256.581 16.568C255.861 17.288 255.297 18.14 254.889 19.124C254.505 20.108 254.313 21.2 254.313 22.4C254.313 23.576 254.505 24.668 254.889 25.676C255.297 26.66 255.849 27.512 256.545 28.232C257.265 28.952 258.105 29.504 259.065 29.888C260.025 30.272 261.069 30.464 262.197 30.464ZM292.248 35V9.8H304.56C307.728 9.8 310.104 10.4 311.688 11.6C313.296 12.8 314.1 14.384 314.1 16.352C314.1 17.672 313.776 18.824 313.128 19.808C312.48 20.768 311.592 21.512 310.464 22.04C309.336 22.568 308.04 22.832 306.576 22.832L307.26 21.356C308.844 21.356 310.248 21.62 311.472 22.148C312.696 22.652 313.644 23.408 314.316 24.416C315.012 25.424 315.36 26.66 315.36 28.124C315.36 30.284 314.508 31.976 312.804 33.2C311.1 34.4 308.592 35 305.28 35H292.248ZM298.044 30.608H304.848C306.36 30.608 307.5 30.368 308.268 29.888C309.06 29.384 309.456 28.592 309.456 27.512C309.456 26.456 309.06 25.676 308.268 25.172C307.5 24.644 306.36 24.38 304.848 24.38H297.612V20.132H303.84C305.256 20.132 306.336 19.892 307.08 19.412C307.848 18.908 308.232 18.152 308.232 17.144C308.232 16.16 307.848 15.428 307.08 14.948C306.336 14.444 305.256 14.192 303.84 14.192H298.044V30.608ZM339.935 35.432C337.919 35.432 335.987 35.168 334.139 34.64C332.291 34.088 330.803 33.38 329.675 32.516L331.655 28.124C332.735 28.892 334.007 29.528 335.471 30.032C336.959 30.512 338.459 30.752 339.971 30.752C341.123 30.752 342.047 30.644 342.743 30.428C343.463 30.188 343.991 29.864 344.327 29.456C344.663 29.048 344.831 28.58 344.831 28.052C344.831 27.38 344.567 26.852 344.039 26.468C343.511 26.06 342.815 25.736 341.951 25.496C341.087 25.232 340.127 24.992 339.071 24.776C338.039 24.536 336.995 24.248 335.939 23.912C334.907 23.576 333.959 23.144 333.095 22.616C332.231 22.088 331.523 21.392 330.971 20.528C330.443 19.664 330.179 18.56 330.179 17.216C330.179 15.776 330.563 14.468 331.331 13.292C332.123 12.092 333.299 11.144 334.859 10.448C336.443 9.728 338.423 9.368 340.799 9.368C342.383 9.368 343.943 9.56 345.479 9.944C347.015 10.304 348.371 10.856 349.547 11.6L347.747 16.028C346.571 15.356 345.395 14.864 344.219 14.552C343.043 14.216 341.891 14.048 340.763 14.048C339.635 14.048 338.711 14.18 337.991 14.444C337.271 14.708 336.755 15.056 336.443 15.488C336.131 15.896 335.975 16.376 335.975 16.928C335.975 17.576 336.239 18.104 336.767 18.512C337.295 18.896 337.991 19.208 338.855 19.448C339.719 19.688 340.667 19.928 341.699 20.168C342.755 20.408 343.799 20.684 344.831 20.996C345.887 21.308 346.847 21.728 347.711 22.256C348.575 22.784 349.271 23.48 349.799 24.344C350.351 25.208 350.627 26.3 350.627 27.62C350.627 29.036 350.231 30.332 349.439 31.508C348.647 32.684 347.459 33.632 345.875 34.352C344.315 35.072 342.335 35.432 339.935 35.432Z" fill="#32746D"/>
</g>
<defs>
<filter id="filter0_d_1688_10" x="19.7799" y="9.36816" width="334.847" height="34.064" filterUnits="userSpaceOnUse" color-interpolation-filters="sRGB">
<feFlood flood-opacity="0" result="BackgroundImageFix"/>
<feColorMatrix in="SourceAlpha" type="matrix" values="0 0 0 0 0 0 0 0 0 0 0 0 0 0 0 0 0 0 127 0" result="hardAlpha"/>
<feOffset dy="4"/>
<feGaussianBlur stdDeviation="2"/>
<feComposite in2="hardAlpha" operator="out"/>
<feColorMatrix type="matrix" values="0 0 0 0 0 0 0 0 0 0 0 0 0 0 0 0 0 0 0.25 0"/>
<feBlend mode="normal" in2="BackgroundImageFix" result="effect1_dropShadow_1688_10"/>
<feBlend mode="normal" in="SourceGraphic" in2="effect1_dropShadow_1688_10" result="shape"/>
</filter>
</defs>
</svg>
