<svg width="25" height="25" viewBox="0 0 25 25" fill="none" xmlns="http://www.w3.org/2000/svg">
<path d="M24.0586 20.7705L19.3711 16.083C19.1367 15.8955 18.8555 15.7549 18.5742 15.7549H17.8242C19.0898 14.1143 19.8867 12.0518 19.8867 9.75488C19.8867 4.41113 15.4805 0.00488281 10.1367 0.00488281C4.74609 0.00488281 0.386719 4.41113 0.386719 9.75488C0.386719 15.1455 4.74609 19.5049 10.1367 19.5049C12.3867 19.5049 14.4492 18.7549 16.1367 17.4424V18.2393C16.1367 18.5205 16.2305 18.8018 16.4648 19.0361L21.1055 23.6768C21.5742 24.1455 22.2773 24.1455 22.6992 23.6768L24.0117 22.3643C24.4805 21.9424 24.4805 21.2393 24.0586 20.7705ZM10.1367 15.7549C6.80859 15.7549 4.13672 13.083 4.13672 9.75488C4.13672 6.47363 6.80859 3.75488 10.1367 3.75488C13.418 3.75488 16.1367 6.47363 16.1367 9.75488C16.1367 13.083 13.418 15.7549 10.1367 15.7549Z" fill="#fff"/>
</svg>